<svg version="1.1" xmlns="http://www.w3.org/2000/svg" xmlns:xlink="http://www.w3.org/1999/xlink" width="500" height="500"><g data-paper-data="{&quot;description&quot;:&quot;Logo for Sugar-Road\n===================\n\nThis logo was generated by MarkMaker at http://emblemmatic.org/markmaker/ and may be composed of elements designed by others.\n\nThe font is Pecita designed by Phillipe Cochy and released under the OFL license via Google Fonts: https://www.google.com/fonts/specimen/Pecita. The font includes this copyright statement: Copyright (c) 2009-2011, Philippe Cochy (http://pecita.com acquadoria@gmail.com), with Reserved Font Name Pecita.\n\nMarkMaker uses semantic data from the Princeton University WordNet database http://wordnet.princeton.edu and font descriptions from Google Fonts https://www.google.com/fonts.&quot;}" fill="#d16abd" fill-rule="nonzero" stroke="none" stroke-width="1" stroke-linecap="butt" stroke-linejoin="miter" stroke-miterlimit="10" stroke-dasharray="" stroke-dashoffset="0" font-family="none" font-weight="none" font-size="none" text-anchor="none" style="mix-blend-mode: normal"><g data-paper-data="{&quot;elementType&quot;:&quot;logo&quot;}"><g data-paper-data="{&quot;elementType&quot;:&quot;text&quot;}"><g data-paper-data="{&quot;baseline&quot;:68.8,&quot;elementType&quot;:&quot;row&quot;}"><g data-paper-data="{&quot;baselineProportion&quot;:0.6880000000000001,&quot;fontSize&quot;:100,&quot;baseline&quot;:68.8,&quot;elementType&quot;:&quot;word&quot;}"><path d="M52.46914,265.47325c-1.64609,0 -2.46914,-0.82305 -2.46914,-2.46914c0,-1.64609 0.82305,-2.46914 2.46914,-2.46914c10.97394,0 18.51852,-0.82305 22.63374,-2.46914c1.92044,-0.76818 2.88066,-1.56379 2.88066,-2.38683c0,-0.82305 -0.67215,-1.56379 -2.01646,-2.22222c-1.34431,-0.65844 -3.59396,-1.50892 -6.74897,-2.55144c-3.15501,-1.04252 -5.55556,-1.92044 -7.20165,-2.63374c-8.01097,-3.34705 -12.01646,-8.4225 -12.01646,-15.22634c0,-4.44444 1.92044,-8.1893 5.76132,-11.23457c3.84088,-3.04527 8.44993,-4.5679 13.82716,-4.5679c2.96296,0 5.44582,0.87791 7.44856,2.63374c2.00274,1.75583 3.00412,3.86831 3.00412,6.33745c0,2.46914 -0.96022,4.66392 -2.88066,6.58436c-1.92044,1.92044 -3.23731,2.88066 -3.95062,2.88066c-1.64609,0 -2.46914,-0.82305 -2.46914,-2.46914c0,-0.71331 0.72702,-1.79698 2.18107,-3.25103c1.45405,-1.45405 2.18107,-2.56516 2.18107,-3.33333c0,-1.31687 -0.50754,-2.38683 -1.52263,-3.20988c-1.01509,-0.82305 -2.31824,-1.23457 -3.90947,-1.23457c-4.06036,0 -7.53086,1.02881 -10.41152,3.08642c-2.88066,2.05761 -4.32099,4.54047 -4.32099,7.44856c0,2.90809 0.80933,5.18519 2.42798,6.83128c1.61866,1.64609 3.45679,2.89438 5.5144,3.74486c2.05761,0.85048 4.12894,1.61866 6.21399,2.30453c2.08505,0.68587 3.82716,1.28944 5.22634,1.8107c1.39918,0.52126 2.81207,1.16598 4.23868,1.93416c2.90809,1.59122 4.36214,3.67627 4.36214,6.25514c0,3.34705 -2.40055,5.8299 -7.20165,7.44856c-4.8011,1.61866 -12.55144,2.42798 -23.25103,2.42798z" data-paper-data="{&quot;elementType&quot;:&quot;letter&quot;,&quot;baseline&quot;:58.6,&quot;baselineProportion&quot;:1,&quot;fontSize&quot;:100}"></path><path d="M96.09053,243.25103c0,-0.71331 0.21948,-1.30316 0.65844,-1.76955c0.43896,-0.46639 1.04252,-0.69959 1.8107,-0.69959c1.64609,0 2.46914,0.82305 2.46914,2.46914c0,4.22497 1.00137,8.16187 3.00412,11.8107c2.00274,3.64883 4.29355,5.47325 6.87243,5.47325c1.15226,0 3.67627,-6.52949 7.57202,-19.58848c0.49383,-1.64609 1.53635,-2.46914 3.12757,-2.46914c0.82305,0 1.42661,0.16461 1.8107,0.49383c0.38409,0.32922 0.61728,0.76818 0.69959,1.31687c0.0823,0.5487 0.2332,1.59122 0.45267,3.12757c0.21948,1.53635 0.49383,3.0727 0.82305,4.60905c0.27435,1.53635 0.631,3.18244 1.06996,4.93827c0.98765,3.95062 2.11248,5.92593 3.37449,5.92593c1.04252,0 1.97531,-0.13717 2.79835,-0.41152c0.82305,-0.27435 1.31687,-0.41152 1.48148,-0.41152c1.64609,0 2.46914,0.82305 2.46914,2.46914c0,1.20713 -0.74074,2.05761 -2.22222,2.55144c-1.48148,0.49383 -2.85322,0.74074 -4.11523,0.74074c-1.262,0 -2.30453,-0.20576 -3.12757,-0.61728c-0.82305,-0.41152 -1.50892,-0.91907 -2.05761,-1.52263c-0.43896,-0.5487 -0.93278,-1.37174 -1.48148,-2.46914c-0.60357,-1.20713 -1.16598,-2.60631 -1.68724,-4.19753c-0.52126,-1.59122 -0.80933,-2.52401 -0.8642,-2.79835c-0.05487,-0.27435 -0.09602,-0.56241 -0.12346,-0.8642c-0.02743,-0.30178 -0.06859,-0.53498 -0.12346,-0.69959c-0.10974,0.21948 -0.21948,0.5487 -0.32922,0.98765l-0.32922,0.98765c-0.10974,0.21948 -0.20576,0.45267 -0.28807,0.69959c-0.0823,0.24691 -0.37037,1.09739 -0.8642,2.55144c-0.49383,1.45405 -0.93278,2.62003 -1.31687,3.49794c-0.38409,0.76818 -0.90535,1.70096 -1.56379,2.79835c-1.31687,2.19479 -3.11385,3.29218 -5.39095,3.29218c-2.27709,0 -4.65021,-1.09739 -7.11934,-3.29218c-2.46914,-2.19479 -4.38957,-5.13032 -5.76132,-8.80658c-1.04252,1.70096 -2.30453,3.26475 -3.78601,4.69136c-2.46914,2.41427 -4.26612,3.84088 -5.39095,4.27984c-1.12483,0.43896 -1.98903,0.65844 -2.59259,0.65844c-1.64609,0 -2.46914,-0.82305 -2.46914,-2.46914c0,-1.04252 0.82305,-1.90672 2.46914,-2.59259c1.64609,-0.68587 3.73114,-2.42798 6.25514,-5.22634c2.52401,-2.79835 3.78601,-5.95336 3.78601,-9.46502z" data-paper-data="{&quot;elementType&quot;:&quot;letter&quot;,&quot;baseline&quot;:32.80000000000001,&quot;baselineProportion&quot;:1,&quot;fontSize&quot;:100}"></path><path d="M150.32922,267.69547c-0.32922,-0.43896 -1.31687,-1.70096 -2.96296,-3.78601c-1.64609,-2.08505 -2.7572,-3.55281 -3.33333,-4.40329c-0.57613,-0.85048 -1.38546,-2.09877 -2.42798,-3.74486c-1.8107,-2.85322 -2.71605,-5.76132 -2.71605,-8.72428c0,-2.96296 0.80933,-5.56927 2.42798,-7.81893c1.61866,-2.24966 3.66255,-3.37449 6.13169,-3.37449c2.46914,0 4.63649,0.74074 6.50206,2.22222c1.86557,1.48148 3.10014,3.59396 3.7037,6.33745c0.10974,0.43896 0.16461,0.87791 0.16461,1.31687c0,1.64609 -0.82305,2.46914 -2.46914,2.46914c-1.20713,0 -2.03018,-0.82305 -2.46914,-2.46914c-0.76818,-3.29218 -2.41427,-4.93827 -4.93827,-4.93827c-1.37174,0 -2.40055,0.67215 -3.08642,2.01646c-0.68587,1.34431 -1.02881,2.6749 -1.02881,3.99177c0,1.31687 0.17833,2.49657 0.53498,3.53909c0.35665,1.04252 0.96022,2.23594 1.8107,3.58025c0.85048,1.34431 1.55007,2.40055 2.09877,3.16872c1.48148,2.08505 3.42936,4.58162 5.84362,7.48971c3.6214,-2.68861 7.27023,-4.66392 10.9465,-5.92593c1.15226,-0.38409 1.8107,-0.57613 1.97531,-0.57613c1.64609,0 2.46914,0.82305 2.46914,2.46914c0,1.20713 -0.82305,2.08505 -2.46914,2.63374c-3.23731,1.04252 -6.6118,2.85322 -10.12346,5.4321c2.57888,4.00549 3.86831,7.37997 3.86831,10.12346c0,2.74348 -1.09739,5.50069 -3.29218,8.2716c-2.19479,2.77092 -4.58162,4.15638 -7.16049,4.15638c-2.57888,0 -4.71879,-0.87791 -6.41975,-2.63374c-1.70096,-1.75583 -2.55144,-3.95062 -2.55144,-6.58436c0,-4.06036 2.9904,-8.80658 8.97119,-14.23868M153.12757,271.7284c-4.55418,4.27984 -6.83128,7.68176 -6.83128,10.20576c0,1.31687 0.35665,2.3594 1.06996,3.12757c0.71331,0.76818 1.68724,1.15226 2.92181,1.15226c1.23457,0 2.46914,-0.90535 3.7037,-2.71605c1.23457,-1.8107 1.85185,-3.52538 1.85185,-5.14403c0,-1.61866 -0.90535,-3.82716 -2.71605,-6.62551z" data-paper-data="{&quot;elementType&quot;:&quot;letter&quot;,&quot;baseline&quot;:36,&quot;baselineProportion&quot;:0.5357142857142858,&quot;fontSize&quot;:100}"></path><path d="M203.90947,258.72428c0,0 0.87791,-0.21948 2.63374,-0.65844c1.64609,0 2.46914,0.82305 2.46914,2.46914c0,1.20713 -0.82305,2.08505 -2.46914,2.63374c-0.98765,0.32922 -1.96159,0.49383 -2.92181,0.49383c-0.96022,0 -1.87929,-0.21948 -2.7572,-0.65844c-0.87791,-0.43896 -1.56379,-1.09739 -2.05761,-1.97531c-0.82305,-1.42661 -1.42661,-2.96296 -1.8107,-4.60905l-0.32922,-1.39918c-0.93278,1.59122 -3.19616,3.45679 -6.79012,5.59671c-3.59396,2.13992 -7.42112,3.20988 -11.48148,3.20988c-2.19479,0 -4.11523,-0.82305 -5.76132,-2.46914c-1.64609,-1.64609 -2.46914,-3.56653 -2.46914,-5.76132c0,-5.32236 2.19479,-9.94513 6.58436,-13.86831c4.38957,-3.92318 8.83402,-5.88477 13.33333,-5.88477c2.46914,0 4.59534,0.45267 6.3786,1.35802c1.78326,0.90535 2.6749,1.82442 2.6749,2.7572c0,1.64609 -0.82305,2.46914 -2.46914,2.46914c-0.32922,0 -1.12483,-0.27435 -2.38683,-0.82305c-1.262,-0.5487 -2.66118,-0.82305 -4.19753,-0.82305c-2.96296,0 -6.20027,1.44033 -9.71193,4.32099c-3.51166,2.88066 -5.26749,6.3786 -5.26749,10.49383c0,0.82305 0.34294,1.5775 1.02881,2.26337c0.68587,0.68587 1.44033,1.02881 2.26337,1.02881c3.23731,0 6.25514,-0.8642 9.0535,-2.59259c2.79835,-1.7284 4.58162,-3.15501 5.34979,-4.27984c0.76818,-1.12483 1.39918,-2.15364 1.893,-3.08642c0.49383,-0.93278 0.8642,-1.55007 1.11111,-1.85185c0.24691,-0.30178 0.78189,-0.45267 1.60494,-0.45267c0.82305,0 1.45405,0.30178 1.893,0.90535c0.43896,0.60357 0.85048,1.55007 1.23457,2.83951c0.38409,1.28944 0.76818,2.72977 1.15226,4.32099c0.38409,1.59122 0.72702,2.66118 1.02881,3.20988c0.30178,0.5487 0.69959,0.82305 1.19342,0.82305z" data-paper-data="{&quot;elementType&quot;:&quot;letter&quot;,&quot;baseline&quot;:36,&quot;baselineProportion&quot;:1.0588235294117647,&quot;fontSize&quot;:100}"></path><path d="M211.893,254.44444c0.10974,-0.16461 0.37037,-1.34431 0.78189,-3.53909c0.41152,-2.19479 0.90535,-4.34842 1.48148,-6.46091c0.57613,-2.11248 1.61866,-4.07407 3.12757,-5.88477c1.50892,-1.8107 3.33333,-2.71605 5.47325,-2.71605c4.1701,0 7.69547,1.08368 10.57613,3.25103c2.88066,2.16735 4.32099,4.95199 4.32099,8.35391c0,3.40192 0.46639,6.43347 1.39918,9.09465c0.93278,2.66118 2.16735,3.99177 3.7037,3.99177c1.04252,0 2.33196,-0.32922 3.86831,-0.98765c2.46914,-0.98765 3.92318,-1.48148 4.36214,-1.48148c1.64609,0 2.46914,0.82305 2.46914,2.46914c0,1.20713 -0.82305,2.08505 -2.46914,2.63374c-3.0727,1.53635 -5.8299,2.30453 -8.2716,2.30453c-2.4417,0 -4.45816,-1.02881 -6.04938,-3.08642c-1.59122,-2.05761 -2.64746,-4.34842 -3.16872,-6.87243c-0.52126,-2.52401 -0.78189,-5.24005 -0.78189,-8.14815c0,-1.92044 -0.93278,-3.49794 -2.79835,-4.73251c-1.86557,-1.23457 -4.22497,-1.85185 -7.07819,-1.85185c-2.30453,0 -4.11523,3.67627 -5.4321,11.02881c-0.5487,2.85322 -0.93278,4.49931 -1.15226,4.93827c-0.93278,1.92044 -3.48422,3.78601 -7.65432,5.59671c-0.98765,0.43896 -1.78326,0.65844 -2.38683,0.65844c-1.64609,0 -2.46914,-0.82305 -2.46914,-2.46914c0,-1.04252 0.82305,-1.893 2.46914,-2.55144c3.23731,-1.31687 5.13032,-2.49657 5.67901,-3.53909z" data-paper-data="{&quot;elementType&quot;:&quot;letter&quot;,&quot;baseline&quot;:36,&quot;baselineProportion&quot;:1,&quot;fontSize&quot;:100}"></path><path d="M285.39095,250.65844c0,1.64609 -0.82305,2.46914 -2.46914,2.46914c-0.10974,0 -1.39918,-0.13717 -3.86831,-0.41152c-2.46914,-0.27435 -4.47188,-0.41152 -6.00823,-0.41152c-4.93827,0 -8.75171,0.46639 -11.44033,1.39918c-0.49383,0.16461 -1.06996,0.24691 -1.7284,0.24691c-1.64609,0 -2.46914,-0.79561 -2.46914,-2.38683c0,-1.15226 0.82305,-2.00274 2.46914,-2.55144c3.29218,-1.09739 7.68176,-1.64609 13.16872,-1.64609c1.64609,0 4.93827,0.27435 9.87654,0.82305c1.64609,0.21948 2.46914,1.04252 2.46914,2.46914z" data-paper-data="{&quot;elementType&quot;:&quot;letter&quot;,&quot;baseline&quot;:22,&quot;baselineProportion&quot;:2.75,&quot;fontSize&quot;:100}"></path><path d="M298.06584,265.47325c-0.60357,0 -1.12483,-0.28807 -1.56379,-0.8642c-0.43896,-0.57613 -0.74074,-1.11111 -0.90535,-1.60494c-1.31687,-5.26749 -1.97531,-11.5775 -1.97531,-18.93004c0,-4.27984 0.85048,-8.4225 2.55144,-12.42798c1.70096,-4.00549 4.36214,-7.40741 7.98354,-10.20576c3.6214,-2.79835 7.75034,-4.19753 12.38683,-4.19753c4.63649,0 8.28532,1.08368 10.9465,3.25103c2.66118,2.16735 3.99177,5.36351 3.99177,9.58848c0,9.32785 -6.03567,13.99177 -18.107,13.99177c6.74897,4.22497 11.96159,8.44993 15.63786,12.6749c1.64609,1.97531 2.46914,3.23731 2.46914,3.78601c0,1.64609 -0.82305,2.46914 -2.46914,2.46914c-0.65844,0 -1.20713,-0.21948 -1.64609,-0.65844c-0.43896,-0.43896 -0.98765,-1.04252 -1.64609,-1.8107c-2.30453,-2.68861 -4.75995,-5.04801 -7.36626,-7.07819c-2.60631,-2.03018 -7.0096,-4.93827 -13.20988,-8.72428c-1.64609,-1.04252 -2.46914,-2.08505 -2.46914,-3.12757c0,-1.64609 0.82305,-2.46914 2.46914,-2.46914h8.23045c4.55418,0 7.88752,-0.65844 10,-1.97531c2.11248,-1.31687 3.16872,-3.49794 3.16872,-6.54321c0,-3.04527 -0.78189,-5.21262 -2.34568,-6.50206c-1.56379,-1.28944 -3.9369,-1.93416 -7.11934,-1.93416c-3.18244,0 -5.95336,0.65844 -8.31276,1.97531c-2.41427,1.37174 -4.33471,3.15501 -5.76132,5.34979c-2.96296,4.49931 -4.44444,9.35528 -4.44444,14.5679c0,6.80384 0.60357,12.70233 1.8107,17.69547c0.10974,0.32922 0.16461,0.74074 0.16461,1.23457c0,1.64609 -0.82305,2.46914 -2.46914,2.46914z" data-paper-data="{&quot;elementType&quot;:&quot;letter&quot;,&quot;baseline&quot;:58.6,&quot;baselineProportion&quot;:1,&quot;fontSize&quot;:100}"></path><path d="M341.35802,242.42798c1.64609,0 2.46914,0.82305 2.46914,2.46914c0,0.65844 -0.13717,1.31687 -0.41152,1.97531c-0.27435,0.65844 -0.41152,1.44033 -0.41152,2.34568c0,0.90535 0.28807,1.82442 0.8642,2.7572c0.57613,0.93278 1.41289,1.93416 2.51029,3.00412c1.09739,1.06996 2.74348,1.98903 4.93827,2.7572c2.19479,0.76818 4.40329,1.15226 6.62551,1.15226c2.22222,0 4.12894,-0.57613 5.72016,-1.7284c1.59122,-1.15226 2.38683,-2.77092 2.38683,-4.85597c0,-3.45679 -0.79561,-6.24143 -2.38683,-8.35391c-1.59122,-2.11248 -3.81344,-3.16872 -6.66667,-3.16872c-1.31687,0 -2.64746,0.41152 -3.99177,1.23457c-1.34431,0.82305 -2.2085,1.23457 -2.59259,1.23457c-1.64609,0 -2.46914,-0.82305 -2.46914,-2.46914c0,-1.04252 0.9465,-2.1262 2.83951,-3.25103c1.893,-1.12483 3.96433,-1.68724 6.21399,-1.68724c4.1701,0 7.54458,1.52263 10.12346,4.5679c2.57888,3.04527 3.86831,7.0096 3.86831,11.893c0,3.51166 -1.30316,6.31001 -3.90947,8.39506c-2.60631,2.08505 -5.39095,3.12757 -8.35391,3.12757c-2.96296,0 -5.66529,-0.37037 -8.107,-1.11111c-2.4417,-0.74074 -4.40329,-1.67353 -5.88477,-2.79835c-1.48148,-1.12483 -2.77092,-2.34568 -3.86831,-3.66255c-1.86557,-2.30453 -2.79835,-4.43073 -2.79835,-6.3786c0,-1.94787 0.30178,-3.67627 0.90535,-5.18519c0.60357,-1.50892 1.39918,-2.26337 2.38683,-2.26337z" data-paper-data="{&quot;elementType&quot;:&quot;letter&quot;,&quot;baseline&quot;:36,&quot;baselineProportion&quot;:1.0588235294117647,&quot;fontSize&quot;:100}"></path><path d="M411.31687,258.72428c0,0 0.87791,-0.21948 2.63374,-0.65844c1.64609,0 2.46914,0.82305 2.46914,2.46914c0,1.20713 -0.82305,2.08505 -2.46914,2.63374c-0.98765,0.32922 -1.96159,0.49383 -2.92181,0.49383c-0.96022,0 -1.87929,-0.21948 -2.7572,-0.65844c-0.87791,-0.43896 -1.56379,-1.09739 -2.05761,-1.97531c-0.82305,-1.42661 -1.42661,-2.96296 -1.8107,-4.60905l-0.32922,-1.39918c-0.93278,1.59122 -3.19616,3.45679 -6.79012,5.59671c-3.59396,2.13992 -7.42112,3.20988 -11.48148,3.20988c-2.19479,0 -4.11523,-0.82305 -5.76132,-2.46914c-1.64609,-1.64609 -2.46914,-3.56653 -2.46914,-5.76132c0,-5.32236 2.19479,-9.94513 6.58436,-13.86831c4.38957,-3.92318 8.83402,-5.88477 13.33333,-5.88477c2.46914,0 4.59534,0.45267 6.3786,1.35802c1.78326,0.90535 2.6749,1.82442 2.6749,2.7572c0,1.64609 -0.82305,2.46914 -2.46914,2.46914c-0.32922,0 -1.12483,-0.27435 -2.38683,-0.82305c-1.262,-0.5487 -2.66118,-0.82305 -4.19753,-0.82305c-2.96296,0 -6.20027,1.44033 -9.71193,4.32099c-3.51166,2.88066 -5.26749,6.3786 -5.26749,10.49383c0,0.82305 0.34294,1.5775 1.02881,2.26337c0.68587,0.68587 1.44033,1.02881 2.26337,1.02881c3.23731,0 6.25514,-0.8642 9.0535,-2.59259c2.79835,-1.7284 4.58162,-3.15501 5.34979,-4.27984c0.76818,-1.12483 1.39918,-2.15364 1.893,-3.08642c0.49383,-0.93278 0.8642,-1.55007 1.11111,-1.85185c0.24691,-0.30178 0.78189,-0.45267 1.60494,-0.45267c0.82305,0 1.45405,0.30178 1.893,0.90535c0.43896,0.60357 0.85048,1.55007 1.23457,2.83951c0.38409,1.28944 0.76818,2.72977 1.15226,4.32099c0.38409,1.59122 0.72702,2.66118 1.02881,3.20988c0.30178,0.5487 0.69959,0.82305 1.19342,0.82305z" data-paper-data="{&quot;elementType&quot;:&quot;letter&quot;,&quot;baseline&quot;:36,&quot;baselineProportion&quot;:1.0588235294117647,&quot;fontSize&quot;:100}"></path><path d="M426.83128,221.44033c0,0 -0.25377,-0.34294 -0.76132,-1.02881c-0.50754,-0.68587 -0.76132,-1.74211 -0.76132,-3.16872c0,-1.42661 0.48011,-2.66118 1.44033,-3.7037c0.96022,-1.04252 2.16735,-1.75583 3.6214,-2.13992c1.45405,-0.38409 3.14129,-0.74074 5.06173,-1.06996c1.92044,-0.32922 3.59396,-0.57613 5.02058,-0.74074c3.73114,-0.43896 5.72016,-0.67215 5.96708,-0.69959c0.24691,-0.02743 0.61728,-0.04115 1.11111,-0.04115c1.64609,0 2.46914,0.82305 2.46914,2.46914c0,0.43896 -0.21948,0.93278 -0.65844,1.48148c-0.43896,0.5487 -0.87791,0.85048 -1.31687,0.90535c-0.43896,0.05487 -1.38546,0.17833 -2.83951,0.37037c-1.45405,0.19204 -2.94925,0.38409 -4.4856,0.57613c-1.53635,0.19204 -3.12757,0.42524 -4.77366,0.69959c-3.78601,0.65844 -5.67901,1.28944 -5.67901,1.893c0,0.43896 0.98765,1.85185 2.96296,4.23868c1.97531,2.38683 4.29355,5.17147 6.95473,8.35391c2.66118,3.18244 4.58162,5.72016 5.76132,7.61317c1.1797,1.893 1.76955,4.00549 1.76955,6.33745c0,2.33196 -0.83676,4.93827 -2.51029,7.81893c-1.67353,2.88066 -3.7037,5.29492 -6.09053,7.2428c-2.38683,1.94787 -4.84225,3.53909 -7.36626,4.77366c-2.52401,1.23457 -4.84225,1.85185 -6.95473,1.85185c-2.11248,0 -3.92318,-0.68587 -5.4321,-2.05761c-1.50892,-1.37174 -2.26337,-3.15501 -2.26337,-5.34979c0,-5.87106 1.87929,-10.60357 5.63786,-14.19753c3.75857,-3.59396 7.69547,-5.39095 11.8107,-5.39095c0.76818,0 1.97531,0.13717 3.6214,0.41152c1.64609,0.27435 2.77092,0.57613 3.37449,0.90535c-1.09739,-1.8107 -3.56653,-4.97942 -7.40741,-9.50617c-3.84088,-4.52675 -6.26886,-7.47599 -7.28395,-8.84774M442.51029,245.39095c-0.87791,-0.43896 -2.19479,-0.87791 -3.95062,-1.31687c-1.75583,-0.43896 -3.10014,-0.65844 -4.03292,-0.65844c-2.68861,0 -5.44582,1.30316 -8.2716,3.90947c-2.82579,2.60631 -4.23868,6.18656 -4.23868,10.74074c0,0.76818 0.32922,1.37174 0.98765,1.8107c0.65844,0.43896 1.53635,0.65844 2.63374,0.65844c1.09739,0 2.7572,-0.57613 4.97942,-1.7284c2.22222,-1.15226 4.54047,-2.94925 6.95473,-5.39095c2.41427,-2.4417 4.06036,-5.1166 4.93827,-8.02469z" data-paper-data="{&quot;elementType&quot;:&quot;letter&quot;,&quot;baseline&quot;:68.8,&quot;baselineProportion&quot;:1,&quot;fontSize&quot;:100}"></path></g></g></g></g></g></svg>